<svg id="Layer_1" data-name="Layer 1" xmlns="http://www.w3.org/2000/svg" viewBox="0 0 512 512"><defs><style>.cls-1{fill:#141f38;}</style></defs><title>megaphone-outline</title><path class="cls-1" d="M300.93,79.59a25.67,25.67,0,0,0-23.46,5.67c-41,36.34-90.69,57.34-139.79,59.14H72.21A72.29,72.29,0,0,0,0,216.61v26.26a72.29,72.29,0,0,0,72.21,72.21h7.43L91.9,400.9a32.82,32.82,0,0,0,65.63-.49l-12.07-84.87c46.42,3.63,93,24.33,132,58.84a25.54,25.54,0,0,0,41.16-10.69,403,403,0,0,0,22.71-133.85A403.16,403.16,0,0,0,318.63,96,25.58,25.58,0,0,0,300.93,79.59ZM72.21,301.94a59.14,59.14,0,0,1-59.08-59.08V216.61a59.14,59.14,0,0,1,59.08-59.08h59.08V301.94H72.21ZM124.72,420.1A19.71,19.71,0,0,1,105,400.41L92.9,315.07h39.25l12.25,85.77A19.71,19.71,0,0,1,124.72,420.1Zm181.53-60.77a12.41,12.41,0,0,1-20.07,5.21c-41.71-36.91-91.81-58.87-141.76-62.26V157.2c50.06-3.39,100.17-25.29,141.76-62.11a12.41,12.41,0,0,1,20.07,5.21,390.14,390.14,0,0,1,22,129.53A390,390,0,0,1,306.24,359.33Z"/><path class="cls-1" d="M461.56,94.24a6.56,6.56,0,1,0-10.05,8.44c30.54,36.4,47.37,83.15,47.37,131.63,0,45-14,87.5-40.44,122.77a6.56,6.56,0,1,0,10.5,7.88C497.11,327.39,512,282.22,512,234.31,512,182.75,494.09,133,461.56,94.24Z"/><path class="cls-1" d="M425.6,133.79a6.57,6.57,0,0,0-10.33,8.1,149.2,149.2,0,0,1,4.65,176,6.56,6.56,0,1,0,10.76,7.53,162.33,162.33,0,0,0-5.07-191.61Z"/><path class="cls-1" d="M380.21,171.78a6.57,6.57,0,0,0-1.78,9.11,92,92,0,0,1,2.51,98,6.56,6.56,0,1,0,11.24,6.77,105.11,105.11,0,0,0-2.86-112.07A6.57,6.57,0,0,0,380.21,171.78Z"/></svg>